# xmcd
#
# Track frame offsets:
# 150
# 22226
# 44988
# 67519
# 85590
# 108542
# 124286
# 145866
# 159541
# 181657
# 200697
# 220890
#
# Disc length: 3209 seconds
#
#
# Revision: 0
# Processed by: cddbd v1.5.1PL2 Copyright (c) Steve Scherf et al.
# Submitted via: FreeRIP 2.945 
#
DISCID=ad0c870c
DTITLE=Odair - Play Back
DYEAR=1900
DGENRE=Gospel
TTITLE0=Unção Divina
TTITLE1=Semente do Sangue
TTITLE2=Voa Andorinha
TTITLE3=Estou na Benção
TTITLE4=Labaredas
TTITLE5=Menor dos Menores
TTITLE6=Não Foi Por Acaso
TTITLE7=Fogo Santo
TTITLE8=Pó da Estrada
TTITLE9=Sobe Glória e desce Glória
TTITLE10=Minha Outra Metade
TTITLE11=Não Fuja da Verdade
EXTD=
EXTT0=
EXTT1=
EXTT2=
EXTT3=
EXTT4=
EXTT5=
EXTT6=
EXTT7=
EXTT8=
EXTT9=
EXTT10=
EXTT11=
PLAYORDER=
